<svg xmlns="http://www.w3.org/2000/svg" viewBox="0 0 720 1000" role="img" aria-labelledby="title desc">
  <title id="title">Тихий сад</title>
  <desc id="desc">Минималистичная обложка с садом, водой и светлым окном.</desc>
  <defs>
    <linearGradient id="bg" x1="0" x2="1" y1="0" y2="1">
      <stop offset="0" stop-color="#b7dcff"/>
      <stop offset="0.48" stop-color="#2f7fc5"/>
      <stop offset="1" stop-color="#172033"/>
    </linearGradient>
    <linearGradient id="glass" x1="0" x2="1">
      <stop offset="0" stop-color="#ffffff" stop-opacity="0.72"/>
      <stop offset="1" stop-color="#ffffff" stop-opacity="0.08"/>
    </linearGradient>
    <filter id="shadow" x="-20%" y="-20%" width="140%" height="140%">
      <feDropShadow dx="0" dy="18" stdDeviation="24" flood-color="#09233f" flood-opacity="0.3"/>
    </filter>
  </defs>
  <rect width="720" height="1000" rx="44" fill="url(#bg)"/>
  <path d="M0 690c115-78 209-78 336-19 149 70 258 56 384-25v354H0z" fill="#0d1f26" opacity="0.88"/>
  <path d="M0 742c124-40 234-31 340 18 132 61 242 50 380-20v260H0z" fill="#112f2b" opacity="0.92"/>
  <path d="M82 636c96-54 177-59 265-15 104 52 188 52 291-2" fill="none" stroke="#eaf7ff" stroke-opacity="0.55" stroke-width="6"/>
  <rect x="76" y="70" width="216" height="290" rx="24" fill="#102437" opacity="0.62" filter="url(#shadow)"/>
  <rect x="108" y="104" width="64" height="86" rx="8" fill="#fff7bd"/>
  <rect x="193" y="104" width="64" height="86" rx="8" fill="#e8f5ff" opacity="0.7"/>
  <rect x="108" y="213" width="149" height="98" rx="8" fill="url(#glass)"/>
  <path d="M488 205c-47 69-70 142-69 219 2 113 58 202 67 316" fill="none" stroke="#d8f5d0" stroke-opacity="0.72" stroke-width="10" stroke-linecap="round"/>
  <path d="M438 316c-56-41-109-49-160-24 58 7 100 36 126 87" fill="#c6efc0" opacity="0.72"/>
  <path d="M487 272c53-51 105-67 157-47-58 13-99 50-121 110" fill="#e3ffd9" opacity="0.68"/>
  <text x="72" y="815" fill="#fff" font-family="Inter, Arial, sans-serif" font-size="66" font-weight="800">Тихий</text>
  <text x="72" y="885" fill="#fff" font-family="Inter, Arial, sans-serif" font-size="66" font-weight="800">сад</text>
  <text x="76" y="932" fill="#d8ecff" font-family="Inter, Arial, sans-serif" font-size="25" font-weight="600">Lumi Editorial</text>
</svg>
