<svg xmlns="http://www.w3.org/2000/svg" viewBox="0 0 720 1000" role="img" aria-labelledby="title desc">
  <title id="title">Город после дождя</title>
  <desc id="desc">Обложка с мокрой улицей, трамваем и неоновым светом.</desc>
  <defs>
    <linearGradient id="bg" x1="0" x2="1" y1="0" y2="1">
      <stop offset="0" stop-color="#bdeeff"/>
      <stop offset="0.46" stop-color="#3789b8"/>
      <stop offset="1" stop-color="#101923"/>
    </linearGradient>
    <linearGradient id="street" x1="0" x2="0" y1="0" y2="1">
      <stop offset="0" stop-color="#263c48"/>
      <stop offset="1" stop-color="#090e14"/>
    </linearGradient>
  </defs>
  <rect width="720" height="1000" rx="44" fill="url(#bg)"/>
  <rect x="0" y="610" width="720" height="390" fill="url(#street)" opacity="0.96"/>
  <path d="M90 126h120v392H90zM258 82h148v456H258zM456 164h148v374H456z" fill="#132634" opacity="0.78"/>
  <path d="M116 174h42M116 234h42M116 294h42M284 136h66M284 204h66M284 272h66M484 216h58M484 284h58" stroke="#c8f2ff" stroke-opacity="0.38" stroke-width="14" stroke-linecap="round"/>
  <rect x="162" y="484" width="398" height="170" rx="28" fill="#142531" opacity="0.92"/>
  <rect x="202" y="526" width="96" height="68" rx="10" fill="#fff0a8"/>
  <rect x="326" y="526" width="96" height="68" rx="10" fill="#d6f6ff"/>
  <rect x="450" y="526" width="68" height="68" rx="10" fill="#d6f6ff" opacity="0.62"/>
  <path d="M172 708c128-42 248-42 376 0M202 792c108-30 213-30 318 0" stroke="#9ce7ff" stroke-opacity="0.42" stroke-width="8" stroke-linecap="round"/>
  <path d="M86 676h548M116 736h488M156 816h410" stroke="#ffffff" stroke-opacity="0.13" stroke-width="5" stroke-linecap="round"/>
  <path d="M116 90v436M248 70v470M444 130v406M620 190v350" stroke="#e9fbff" stroke-opacity="0.18" stroke-width="4"/>
  <text x="68" y="796" fill="#fff" font-family="Inter, Arial, sans-serif" font-size="54" font-weight="800">Город</text>
  <text x="68" y="858" fill="#fff" font-family="Inter, Arial, sans-serif" font-size="54" font-weight="800">после дождя</text>
  <text x="72" y="928" fill="#cff5ff" font-family="Inter, Arial, sans-serif" font-size="25" font-weight="600">Lumi Editorial</text>
</svg>
