<svg xmlns="http://www.w3.org/2000/svg" viewBox="0 0 720 1000" role="img" aria-labelledby="title desc">
  <title id="title">Свет в мастерской</title>
  <desc id="desc">Теплая обложка с лампой, столом и листами работы.</desc>
  <defs>
    <linearGradient id="bg" x1="0" x2="1" y1="0" y2="1">
      <stop offset="0" stop-color="#ffe1a2"/>
      <stop offset="0.52" stop-color="#c47c25"/>
      <stop offset="1" stop-color="#312018"/>
    </linearGradient>
    <radialGradient id="light" cx="50%" cy="30%" r="42%">
      <stop offset="0" stop-color="#fff6ca" stop-opacity="0.96"/>
      <stop offset="1" stop-color="#fff6ca" stop-opacity="0"/>
    </radialGradient>
  </defs>
  <rect width="720" height="1000" rx="44" fill="url(#bg)"/>
  <rect width="720" height="1000" rx="44" fill="url(#light)"/>
  <path d="M0 650h720v350H0z" fill="#241a18" opacity="0.82"/>
  <path d="M320 148h80l50 148H270z" fill="#2b241d" opacity="0.88"/>
  <path d="M360 296v180" stroke="#35251d" stroke-width="16" stroke-linecap="round"/>
  <rect x="180" y="468" width="360" height="30" rx="15" fill="#382920"/>
  <rect x="132" y="558" width="214" height="164" rx="18" fill="#fff6e0" opacity="0.88"/>
  <rect x="382" y="540" width="206" height="188" rx="18" fill="#f4d1a2" opacity="0.78"/>
  <path d="M174 612h128M174 652h98M424 600h116M424 642h88" stroke="#8e5b2d" stroke-opacity="0.46" stroke-width="8" stroke-linecap="round"/>
  <path d="M92 390c103-34 193-35 269-3 98 41 190 30 275-35" fill="none" stroke="#fff8d7" stroke-opacity="0.45" stroke-width="7" stroke-linecap="round"/>
  <text x="70" y="784" fill="#fff" font-family="Inter, Arial, sans-serif" font-size="56" font-weight="800">Свет в</text>
  <text x="70" y="848" fill="#fff" font-family="Inter, Arial, sans-serif" font-size="56" font-weight="800">мастерской</text>
  <text x="74" y="918" fill="#ffe7b8" font-family="Inter, Arial, sans-serif" font-size="25" font-weight="600">Lumi Editorial</text>
</svg>
